<svg width="21" height="22" viewBox="0 0 21 22" fill="none" xmlns="http://www.w3.org/2000/svg">
<path d="M12.41 11.0002L20.7 2.71019C20.8638 2.51888 20.9494 2.27281 20.9397 2.02113C20.93 1.76946 20.8257 1.53072 20.6476 1.35262C20.4695 1.17453 20.2307 1.0702 19.9791 1.06047C19.7274 1.05075 19.4813 1.13636 19.29 1.30019L11 9.59019L2.71 1.29019C2.5217 1.10188 2.26631 0.996094 2 0.996094C1.7337 0.996094 1.47831 1.10188 1.29 1.29019C1.1017 1.47849 0.995912 1.73388 0.995912 2.00019C0.995912 2.26649 1.1017 2.52188 1.29 2.71019L9.59 11.0002L1.29 19.2902C1.18532 19.3798 1.1003 19.4902 1.04028 19.6142C0.980255 19.7383 0.946525 19.8734 0.941205 20.0111C0.935886 20.1488 0.959091 20.2862 1.00937 20.4145C1.05964 20.5428 1.1359 20.6594 1.23335 20.7568C1.33081 20.8543 1.44736 20.9305 1.57568 20.9808C1.70401 21.0311 1.84134 21.0543 1.97906 21.049C2.11678 21.0437 2.25191 21.0099 2.37597 20.9499C2.50004 20.8899 2.61036 20.8049 2.7 20.7002L11 12.4102L19.29 20.7002C19.4813 20.864 19.7274 20.9496 19.9791 20.9399C20.2307 20.9302 20.4695 20.8258 20.6476 20.6477C20.8257 20.4697 20.93 20.2309 20.9397 19.9792C20.9494 19.7276 20.8638 19.4815 20.7 19.2902L12.41 11.0002Z" fill="black"/>
</svg>
