<svg width="28" height="28" viewBox="0 0 28 28" fill="none" xmlns="http://www.w3.org/2000/svg">
<g clip-path="url(#clip0_107_7850)">
<path d="M15.0965 13.9997L21.5443 7.55193C21.6717 7.40314 21.7383 7.21175 21.7308 7.016C21.7232 6.82025 21.642 6.63457 21.5035 6.49605C21.365 6.35753 21.1793 6.27638 20.9836 6.26882C20.7878 6.26126 20.5964 6.32785 20.4476 6.45527L13.9999 12.903L7.55209 6.44749C7.40563 6.30103 7.20699 6.21875 6.99987 6.21875C6.79275 6.21875 6.59411 6.30103 6.44765 6.44749C6.30119 6.59395 6.21891 6.79259 6.21891 6.99971C6.21891 7.20683 6.30119 7.40547 6.44765 7.55193L12.9032 13.9997L6.44765 20.4475C6.36623 20.5172 6.3001 20.603 6.25342 20.6995C6.20673 20.796 6.1805 20.9011 6.17636 21.0082C6.17222 21.1153 6.19027 21.2222 6.22937 21.322C6.26848 21.4218 6.32779 21.5124 6.40359 21.5882C6.47939 21.664 6.57003 21.7233 6.66984 21.7624C6.76965 21.8015 6.87646 21.8196 6.98358 21.8154C7.09069 21.8113 7.1958 21.7851 7.29229 21.7384C7.38879 21.6917 7.47459 21.6256 7.54431 21.5442L13.9999 15.0964L20.4476 21.5442C20.5964 21.6716 20.7878 21.7382 20.9836 21.7306C21.1793 21.723 21.365 21.6419 21.5035 21.5034C21.642 21.3649 21.7232 21.1792 21.7308 20.9834C21.7383 20.7877 21.6717 20.5963 21.5443 20.4475L15.0965 13.9997Z" fill="black"/>
</g>
<defs>
<clipPath id="clip0_107_7850">
<rect width="28" height="28" fill="white"/>
</clipPath>
</defs>
</svg>
