<svg width="93" height="33" viewBox="0 0 93 33" fill="none" xmlns="http://www.w3.org/2000/svg">
<path d="M6.456 8.672C6.98933 7.84 7.72533 7.168 8.664 6.656C9.60267 6.144 10.7013 5.888 11.96 5.888C13.432 5.888 14.7653 6.26133 15.96 7.008C17.1547 7.75467 18.0933 8.82133 18.776 10.208C19.48 11.5947 19.832 13.2053 19.832 15.04C19.832 16.8747 19.48 18.496 18.776 19.904C18.0933 21.2907 17.1547 22.368 15.96 23.136C14.7653 23.8827 13.432 24.256 11.96 24.256C10.7227 24.256 9.624 24 8.664 23.488C7.72533 22.976 6.98933 22.3147 6.456 21.504V32.512H0.984V6.144H6.456V8.672ZM14.264 15.04C14.264 13.6747 13.88 12.608 13.112 11.84C12.3653 11.0507 11.4373 10.656 10.328 10.656C9.24 10.656 8.312 11.0507 7.544 11.84C6.79733 12.6293 6.424 13.7067 6.424 15.072C6.424 16.4373 6.79733 17.5147 7.544 18.304C8.312 19.0933 9.24 19.488 10.328 19.488C11.416 19.488 12.344 19.0933 13.112 18.304C13.88 17.4933 14.264 16.4053 14.264 15.04ZM41.7747 14.784C41.7747 15.296 41.7428 15.8293 41.6788 16.384H29.2948C29.3801 17.4933 29.7321 18.3467 30.3507 18.944C30.9907 19.52 31.7694 19.808 32.6868 19.808C34.0521 19.808 35.0014 19.232 35.5347 18.08H41.3588C41.0601 19.2533 40.5161 20.3093 39.7268 21.248C38.9588 22.1867 37.9881 22.9227 36.8148 23.456C35.6414 23.9893 34.3294 24.256 32.8787 24.256C31.1294 24.256 29.5721 23.8827 28.2067 23.136C26.8414 22.3893 25.7747 21.3227 25.0067 19.936C24.2387 18.5493 23.8547 16.928 23.8547 15.072C23.8547 13.216 24.2281 11.5947 24.9747 10.208C25.7427 8.82133 26.8094 7.75467 28.1747 7.008C29.5401 6.26133 31.1081 5.888 32.8787 5.888C34.6068 5.888 36.1428 6.25067 37.4868 6.976C38.8308 7.70133 39.8761 8.736 40.6228 10.08C41.3908 11.424 41.7747 12.992 41.7747 14.784ZM36.1748 13.344C36.1748 12.4053 35.8548 11.6587 35.2148 11.104C34.5748 10.5493 33.7748 10.272 32.8148 10.272C31.8974 10.272 31.1188 10.5387 30.4788 11.072C29.8601 11.6053 29.4761 12.3627 29.3268 13.344H36.1748ZM67.6135 0.32V24H62.1415V0.32H67.6135ZM92.059 6.144L80.859 32.48H74.971L79.067 23.392L71.803 6.144H77.915L82.043 17.312L86.139 6.144H92.059Z" fill="#111111"/>
<path d="M56.8535 19.36V24H54.0695C52.0855 24 50.5388 23.52 49.4295 22.56C48.3202 21.5787 47.7655 19.9893 47.7655 17.792V10.688H45.5895V6.144H47.7655V1.792H53.2375V6.144H56.8215V10.688H53.2375V17.856C53.2375 18.3893 53.3655 18.7733 53.6215 19.008C53.8775 19.2427 54.3042 19.36 54.9015 19.36H56.8535Z" fill="#F59256"/>
</svg>
